<?xml version="1.0" encoding="UTF-8"?>
<svg width="500px" height="500px" viewBox="0 0 500 500" version="1.1" xmlns="http://www.w3.org/2000/svg" xmlns:xlink="http://www.w3.org/1999/xlink">
    <!-- Generator: Sketch 63.1 (92452) - https://sketch.com -->
    <title>sdk_floatbtn</title>
    <desc>Created with Sketch.</desc>
    <defs>
        <linearGradient x1="91.322314%" y1="0%" x2="13.0624881%" y2="97.7876503%" id="linearGradient-1">
            <stop stop-color="#A0F2FA" offset="0%"></stop>
            <stop stop-color="#1EA6B7" offset="100%"></stop>
        </linearGradient>
    </defs>
    <g id="sdk_floatbtn" stroke="none" stroke-width="1" fill="none" fill-rule="evenodd">
        <rect id="矩形" fill="url(#linearGradient-1)" x="0" y="0" width="500" height="550"></rect>
        <circle id="椭圆形" fill="#FFFFFF" opacity="0.133765811" cx="384" cy="55" r="134"></circle>
        <circle id="椭圆形" fill="#FFFFFF" opacity="0.133765811" cx="449" cy="218" r="134"></circle>
        <g id="编组" transform="translate(150.000000, 143.000000)" fill="#FFFFFF" fill-rule="nonzero">
            <path d="M10.703125,211.089154 C7.61488971,211.089154 4.67371324,209.471507 3.203125,206.530331 C1.14430147,202.412684 2.76194853,197.265625 6.87959559,195.206801 L92.7619485,151.236213 C93.0560662,151.089154 93.203125,150.942096 93.4972426,150.942096 C97.3207721,149.030331 102.173713,149.030331 106.144301,151.089154 L106.732537,151.383272 L192.173713,195.35386 C196.29136,197.412684 197.909007,202.559743 195.850184,206.67739 C193.79136,210.795037 188.644301,212.412684 184.526654,210.35386 L99.8207721,166.67739 C99.8207721,166.67739 99.8207721,166.67739 99.6737132,166.67739 L14.6737132,210.206801 C13.203125,210.795037 11.8795956,211.089154 10.703125,211.089154 Z" id="路径"></path>
            <path d="M133.056066,45.3538603 L65.703125,45.3538603 C60.9972426,45.3538603 57.3207721,41.5303309 57.3207721,36.9715074 C57.3207721,32.265625 61.1443015,28.5891544 65.703125,28.5891544 L133.056066,28.5891544 C137.761949,28.5891544 141.438419,32.4126838 141.438419,36.9715074 C141.438419,41.6773897 137.761949,45.3538603 133.056066,45.3538603 Z" id="路径"></path>
            <path d="M167.467831,131.971507 L133.79136,131.971507 C129.085478,131.971507 125.409007,128.147978 125.409007,123.589154 C125.409007,119.030331 129.232537,115.206801 133.79136,115.206801 L167.467831,115.206801 C172.173713,115.206801 175.850184,119.030331 175.850184,123.589154 C175.850184,128.147978 172.173713,131.971507 167.467831,131.971507 Z" id="路径"></path>
            <path d="M150.703125,148.883272 C145.997243,148.883272 142.320772,145.059743 142.320772,140.500919 L142.320772,106.824449 C142.320772,102.118566 146.144301,98.4420956 150.703125,98.4420956 C155.261949,98.4420956 159.085478,102.265625 159.085478,106.824449 L159.085478,140.500919 C159.085478,145.059743 155.261949,148.883272 150.703125,148.883272 Z" id="路径"></path>
            <path d="M190.261949,212.559743 C185.556066,212.559743 181.879596,208.736213 181.879596,204.17739 L181.879596,21.0891544 C181.879596,18.7362132 179.967831,16.8244485 177.61489,16.8244485 L21.1443015,16.8244485 C18.7913603,16.8244485 16.8795956,18.7362132 16.8795956,21.0891544 L16.8795956,204.030331 C16.8795956,208.736213 13.0560662,212.412684 8.49724265,212.412684 C3.79136029,212.412684 0.114889706,208.589154 0.114889706,204.030331 L0.114889706,21.0891544 C0.114889706,9.47150735 9.52665441,0.0597426471 21.1443015,0.0597426471 L177.61489,0.0597426471 C189.232537,0.0597426471 198.644301,9.47150735 198.644301,21.0891544 L198.644301,204.030331 C198.644301,208.736213 194.967831,212.559743 190.261949,212.559743 Z" id="路径"></path>
        </g>
    </g>
</svg>